<svg width="351" height="51" viewBox="0 0 351 51" fill="none" xmlns="http://www.w3.org/2000/svg">
<path d="M10.3 41.5H10.95V42H1.19209e-07V41.5H0.65C1.51667 41.5 2.25 41.2 2.85 40.6C3.48333 39.9667 3.81667 39.2167 3.85 38.35V10.6C3.81667 9.73333 3.48333 9 2.85 8.4C2.25 7.8 1.51667 7.5 0.65 7.5H1.19209e-07V7H10.95V7.5H10.3C9.43333 7.5 8.68333 7.8 8.05 8.4C7.45 9 7.13333 9.73333 7.1 10.6V38.35C7.1 39.2167 7.41667 39.9667 8.05 40.6C8.68333 41.2 9.43333 41.5 10.3 41.5ZM44.95 49.5V50C43.6833 50.3 42.4167 50.45 41.15 50.45C35.6833 50.45 30.3833 47.7167 25.25 42.25L8.7 24.6L20.5 9.8C20.7667 9.46666 20.9 9.16666 20.9 8.9C20.9 8.63333 20.85 8.4 20.75 8.2C20.4833 7.7 20 7.45 19.3 7.45H18.8V7H29.35V7.45H29.15C26.95 7.45 25.15 8.23333 23.75 9.8L12.1 23.25L29.1 41.4C31.3 43.7667 33.7667 45.7 36.5 47.2C39.2667 48.7333 42.0833 49.5 44.95 49.5ZM66.2473 41.5H66.6473V42H55.3973V41.5H55.8473C56.5473 41.5 57.0639 41.2833 57.3973 40.85C57.7639 40.3833 57.9473 39.95 57.9473 39.55C57.9473 39.15 57.8806 38.75 57.7473 38.35L54.5473 29.85H41.0473L37.6973 38.4C37.5639 38.8 37.4973 39.2 37.4973 39.6C37.4973 39.9667 37.6639 40.3833 37.9973 40.85C38.3639 41.2833 38.8973 41.5 39.5973 41.5H40.0473V42H29.9973V41.5H30.4473C31.2806 41.5 32.0973 41.2333 32.8973 40.7C33.6973 40.1667 34.3473 39.3833 34.8473 38.35L46.1473 11.45C47.3806 8.75 47.9973 7.03333 47.9973 6.3H48.4473L61.8473 38.35C62.3139 39.3833 62.9473 40.1667 63.7473 40.7C64.5473 41.2333 65.3806 41.5 66.2473 41.5ZM41.6473 28.35H53.9473L47.9473 12.3L41.6473 28.35ZM79.343 8.55H76.143V38.35C76.143 39.2167 76.443 39.9667 77.043 40.6C77.6763 41.2 78.443 41.5 79.343 41.5H79.943L79.993 42H69.043V41.5H69.693C70.5596 41.5 71.293 41.2 71.893 40.6C72.5263 40 72.8596 39.2667 72.893 38.4V10.65C72.8596 9.78333 72.5263 9.05 71.893 8.45C71.293 7.81666 70.5596 7.5 69.693 7.5H69.043V7H82.543C85.5763 7 87.9596 7.85 89.693 9.55C91.4263 11.2167 92.293 13.4 92.293 16.1C92.293 18.7667 91.4596 21.0833 89.793 23.05C88.1596 24.9833 86.1596 25.95 83.793 25.95C84.293 26.1833 84.8763 26.65 85.543 27.35C86.243 28.0167 86.8596 28.7167 87.393 29.45C90.2596 33.55 92.1263 36.0833 92.993 37.05C93.8596 37.9833 94.4763 38.6333 94.843 39C95.2096 39.3333 95.6096 39.6667 96.043 40C96.4763 40.3333 96.9096 40.6 97.343 40.8C98.3096 41.2667 99.343 41.5 100.443 41.5V42H97.693C96.2596 42 94.9263 41.75 93.693 41.25C92.4596 40.7167 91.5263 40.1833 90.893 39.65C90.293 39.0833 89.7596 38.55 89.293 38.05C88.8596 37.5167 87.6263 35.7833 85.593 32.85C83.5596 29.9167 82.3763 28.25 82.043 27.85C81.7096 27.4167 81.3596 27 80.993 26.6C79.9263 25.4667 78.8596 24.9 77.793 24.9V24.4C78.0596 24.4333 78.4096 24.45 78.843 24.45C79.2763 24.45 79.8096 24.4333 80.443 24.4C84.5763 24.3 87.1763 22.5667 88.243 19.2C88.443 18.5333 88.543 17.9167 88.543 17.35C88.543 16.75 88.543 16.3667 88.543 16.2C88.4763 13.9667 87.893 12.1667 86.793 10.8C85.693 9.43333 84.2096 8.7 82.343 8.6C81.543 8.56666 80.543 8.55 79.343 8.55ZM96.9809 16.95C95.9475 15.7167 95.4309 14.5 95.4309 13.3C95.4309 12.0667 95.7142 11.0167 96.2809 10.15C96.8475 9.25 97.7642 8.5 99.0309 7.9C100.298 7.26666 101.731 6.95 103.331 6.95H123.831C124.864 6.95 125.998 6.85 127.231 6.65C128.498 6.45 129.381 6.25 129.881 6.05V12.35L129.381 12.3V11.45C129.381 10.65 129.098 9.96666 128.531 9.4C127.964 8.8 127.298 8.48333 126.531 8.45H117.031V38.4C117.064 39.6 117.598 40.5 118.631 41.1C119.131 41.3667 119.664 41.5 120.231 41.5H120.881V42H109.931V41.5H110.581C111.448 41.5 112.181 41.2 112.781 40.6C113.414 40 113.748 39.2833 113.781 38.45V8.45H103.331C100.664 8.45 98.7309 9.3 97.5309 11C96.8975 11.8667 96.5809 12.7833 96.5809 13.75C96.5809 14.6833 96.8475 15.6667 97.3809 16.7L96.9809 16.95ZM135.529 11.7C136.463 11.4 137.096 10.9667 137.429 10.4C137.763 9.83333 137.929 9.4 137.929 9.1C137.929 8.26666 137.579 7.45 136.879 6.65C136.346 6.05 136.046 5.63333 135.979 5.4C135.879 4.9 135.929 4.43333 136.129 4C136.429 3.33333 136.996 3 137.829 3C138.863 3 139.563 3.48333 139.929 4.45C140.329 5.38333 140.529 6.28333 140.529 7.15C140.529 8.01667 140.263 8.88333 139.729 9.75C138.729 11.2833 137.363 12.0667 135.629 12.1L135.529 11.7ZM145.802 39.95C145.702 39.4833 145.652 38.5833 145.652 37.25C145.652 35.9167 145.902 34.5 146.402 33H146.852C146.819 33.3667 146.802 33.7333 146.802 34.1C146.802 36.1333 147.419 37.8333 148.652 39.2C149.885 40.5333 151.519 41.2 153.552 41.2C155.652 41.2 157.369 40.5667 158.702 39.3C160.069 38.0333 160.752 36.45 160.752 34.55C160.752 32.6167 160.102 31.05 158.802 29.85L149.202 20.95C147.402 19.2833 146.502 17.2667 146.502 14.9C146.502 12.5333 147.285 10.5167 148.852 8.85C150.452 7.15 152.602 6.3 155.302 6.3C156.569 6.3 158.002 6.46666 159.602 6.8H161.552V12.95H161.102C161.102 11.3833 160.552 10.1333 159.452 9.2C158.385 8.26667 157.002 7.8 155.302 7.8C153.602 7.8 152.169 8.36667 151.002 9.5C149.869 10.6333 149.302 12.05 149.302 13.75C149.302 15.45 149.969 16.9167 151.302 18.15L161.152 27.25C162.819 28.7833 163.652 30.8833 163.652 33.55C163.652 36.2167 162.802 38.4167 161.102 40.15C159.402 41.85 157.135 42.7 154.302 42.7C152.835 42.7 151.269 42.4667 149.602 42C147.969 41.5667 146.702 40.8833 145.802 39.95Z" fill="black"/>
<path d="M215.481 41.5H216.081V42H205.181V41.5H205.831C206.665 41.5 207.381 41.2167 207.981 40.65C208.615 40.05 208.965 39.3167 209.031 38.45V25.45H189.681V38.5C189.681 43.1667 188.548 46.3 186.281 47.9C185.248 48.6333 183.915 49.1833 182.281 49.55L182.031 49.1C183.531 48.3 184.631 47.0667 185.331 45.4C186.065 43.7333 186.431 41.4333 186.431 38.5V10.6C186.431 9.73333 186.115 9 185.481 8.4C184.848 7.8 184.098 7.5 183.231 7.5H182.631V7H193.531V7.5H192.881C192.015 7.5 191.265 7.8 190.631 8.4C190.031 9 189.715 9.73333 189.681 10.6V23.95H209.031V11.5C209.065 7.23333 210.015 4.26666 211.881 2.6C213.015 1.6 214.548 0.883332 216.481 0.449998L216.731 0.899999C215.231 1.7 214.115 2.93333 213.381 4.6C212.648 6.26667 212.281 8.56667 212.281 11.5V38.35C212.281 39.2167 212.581 39.9667 213.181 40.6C213.815 41.2 214.581 41.5 215.481 41.5ZM226.079 11.35C229.645 7.98333 234.262 6.3 239.929 6.3C245.629 6.3 250.262 7.98333 253.829 11.35C257.395 14.6833 259.179 19.0667 259.179 24.5C259.179 29.9333 257.395 34.3333 253.829 37.7C250.262 41.0333 245.629 42.7 239.929 42.7C234.262 42.7 229.645 41.0333 226.079 37.7C222.512 34.3333 220.729 29.9333 220.729 24.5C220.729 19.0667 222.512 14.6833 226.079 11.35ZM228.779 36.6C231.612 39.6667 235.329 41.2 239.929 41.2C244.529 41.2 248.229 39.6667 251.029 36.6C253.862 33.5333 255.279 29.5 255.279 24.5C255.279 19.5 253.862 15.4667 251.029 12.4C248.229 9.33333 244.529 7.8 239.929 7.8C235.329 7.8 231.612 9.33333 228.779 12.4C225.979 15.4667 224.579 19.5 224.579 24.5C224.579 29.5 225.979 33.5333 228.779 36.6ZM297.129 7.5H296.329C295.629 7.5 295.012 7.73333 294.479 8.2C293.979 8.63333 293.712 9.18333 293.679 9.85V29.65C293.679 33.55 292.446 36.7 289.979 39.1C287.512 41.5 284.229 42.7 280.129 42.7C276.029 42.7 272.696 41.5167 270.129 39.15C267.596 36.75 266.329 33.6 266.329 29.7V10C266.329 9 265.896 8.26667 265.029 7.8C264.629 7.6 264.179 7.5 263.679 7.5H262.879V7H273.029V7.5H272.229C271.496 7.5 270.879 7.73333 270.379 8.2C269.879 8.63333 269.612 9.2 269.579 9.9V29C269.579 32.6333 270.546 35.5667 272.479 37.8C274.446 40.0333 277.062 41.15 280.329 41.15C283.596 41.15 286.246 40.1 288.279 38C290.312 35.8667 291.329 33.0833 291.329 29.65V9.9C291.296 9.2 291.029 8.63333 290.529 8.2C290.029 7.73333 289.412 7.5 288.679 7.5H287.879V7H297.129V7.5ZM302.687 39.95C302.587 39.4833 302.537 38.5833 302.537 37.25C302.537 35.9167 302.787 34.5 303.287 33H303.737C303.703 33.3667 303.687 33.7333 303.687 34.1C303.687 36.1333 304.303 37.8333 305.537 39.2C306.77 40.5333 308.403 41.2 310.437 41.2C312.537 41.2 314.253 40.5667 315.587 39.3C316.953 38.0333 317.637 36.45 317.637 34.55C317.637 32.6167 316.987 31.05 315.687 29.85L306.087 20.95C304.287 19.2833 303.387 17.2667 303.387 14.9C303.387 12.5333 304.17 10.5167 305.737 8.85C307.337 7.15 309.487 6.3 312.187 6.3C313.453 6.3 314.887 6.46666 316.487 6.8H318.437V12.95H317.987C317.987 11.3833 317.437 10.1333 316.337 9.2C315.27 8.26667 313.887 7.8 312.187 7.8C310.487 7.8 309.053 8.36667 307.887 9.5C306.753 10.6333 306.187 12.05 306.187 13.75C306.187 15.45 306.853 16.9167 308.187 18.15L318.037 27.25C319.703 28.7833 320.537 30.8833 320.537 33.55C320.537 36.2167 319.687 38.4167 317.987 40.15C316.287 41.85 314.02 42.7 311.187 42.7C309.72 42.7 308.153 42.4667 306.487 42C304.853 41.5667 303.587 40.8833 302.687 39.95ZM327.066 41.5C327.933 41.5 328.666 41.2 329.266 40.6C329.899 39.9667 330.233 39.2167 330.266 38.35V10.35C330.266 9.55 329.949 8.88333 329.316 8.35C328.683 7.78333 327.933 7.5 327.066 7.5H326.466L326.416 7H341.066C342.099 7 343.216 6.9 344.416 6.7C345.649 6.5 346.516 6.3 347.016 6.1V12.4H346.516V11.5C346.516 10.7 346.233 10.0167 345.666 9.45C345.133 8.88333 344.483 8.58333 343.716 8.55H333.516V24H341.966C342.633 23.9667 343.199 23.7167 343.666 23.25C344.133 22.7833 344.366 22.2 344.366 21.5V20.8H344.866V28.7H344.366V27.95C344.366 27.2833 344.133 26.7167 343.666 26.25C343.233 25.7833 342.683 25.5333 342.016 25.5H333.516V40.45H340.666C343.133 40.45 345.016 39.9 346.316 38.8C347.616 37.7 348.699 36.0667 349.566 33.9H350.066L347.166 42H326.416V41.5H327.066Z" fill="#FFB74D"/>
</svg>
